<svg xmlns="http://www.w3.org/2000/svg" xmlns:xlink="http://www.w3.org/1999/xlink" width="980" height="1080"><g transform="translate(-20 -20)"><path d="M0 0h1360v1760H0z" fill="#fff"/><path d="M560 45c0-2.76 2.24-5 5-5h150c2.76 0 5 2.24 5 5v150c0 2.76-2.24 5-5 5H565c-2.76 0-5-2.24-5-5z" stroke="#666" stroke-width="2" fill="#fff"/><use xlink:href="#a" transform="matrix(1,0,0,1,565,45) translate(46.05 78.60000000000001)"/><path d="M320 265c0-2.76 2.24-5 5-5h150c2.76 0 5 2.24 5 5v150c0 2.76-2.24 5-5 5H325c-2.76 0-5-2.24-5-5z" stroke="#666" stroke-width="2" fill="#fff"/><use xlink:href="#b" transform="matrix(1,0,0,1,325,265) translate(33.05 78.60000000000001)"/><path d="M820 265c0-2.76 2.24-5 5-5h150c2.76 0 5 2.24 5 5v150c0 2.76-2.24 5-5 5H825c-2.76 0-5-2.24-5-5z" stroke="#666" stroke-width="2" fill="#fff"/><use xlink:href="#c" transform="matrix(1,0,0,1,825,265) translate(37.05 78.60000000000001)"/><path d="M820 585c0-2.76 2.24-5 5-5h150c2.76 0 5 2.24 5 5v150c0 2.76-2.24 5-5 5H825c-2.76 0-5-2.24-5-5z" stroke="#666" stroke-width="2" fill="#fff"/><use xlink:href="#d" transform="matrix(1,0,0,1,825,585) translate(32.574999999999996 78.60000000000001)"/><path d="M480 925c0-2.76 2.24-5 5-5h150c2.76 0 5 2.24 5 5v150c0 2.76-2.24 5-5 5H485c-2.76 0-5-2.24-5-5z" stroke="#666" stroke-width="2" fill="#fff"/><use xlink:href="#e" transform="matrix(1,0,0,1,485,925) translate(46.55 78.60000000000001)"/><path d="M480 585c0-2.76 2.24-5 5-5h150c2.76 0 5 2.24 5 5v150c0 2.76-2.24 5-5 5H485c-2.76 0-5-2.24-5-5z" stroke="#666" stroke-width="2" fill="#fff"/><use xlink:href="#f" transform="matrix(1,0,0,1,485,585) translate(44.05 78.60000000000001)"/><path d="M560 120H405c-2.76 0-5 2.24-5 5v135" stroke="#999" stroke-width="2" fill="none"/><path d="M541 130h-2v-20h2zM410.9 259.55l-.9.45h-1.12L400 242.24 391.12 260H390l-.9-.45 10.9-21.8z" fill="#999"/><path d="M410 230l-.5 3.16-1.43 2.75-2.16 2.17-2.74 1.42-3.16.5-3.16-.5-2.75-1.43-2.17-2.16-1.42-2.74-.5-3.16.5-3.16 1.43-2.75 2.16-2.17 2.74-1.42 3.16-.5 3.16.5 2.75 1.43 2.17 2.16 1.42 2.74z" fill="#fff"/><path d="M403.48 219.55l3.02 1.56 2.4 2.4 1.55 3.02.54 3.32-1 .16 1 .16-.55 3.32-1.56 3.02-2.4 2.4-3.02 1.55-3.48.56-3.48-.55-3.02-1.56-2.4-2.4-1.55-3.02L389 230l.55-3.48 1.56-3.02 2.4-2.4 3.02-1.55L400 219zm-6.32 1.92l-2.47 1.28-1.95 1.94-1.28 2.46L391 230l.47 2.84 1.28 2.47 1.94 1.95 2.46 1.28 2.84.46 2.84-.47 2.47-1.28 1.95-1.94 1.28-2.46.46-2.84-.47-2.84-1.28-2.47-1.94-1.95-2.46-1.28L400 221z" fill="#999"/><path fill="#fff" d="M354.07 181.87h91.86v21.6h-91.86z"/><use xlink:href="#g" transform="matrix(1,0,0,1,354.075,181.86666666666665) translate(0.005000000000002558 14.4)"/><path fill="#fff" d="M482.38 109.2h53.9v21.6h-53.9z"/><use xlink:href="#h" transform="matrix(1,0,0,1,482.3833333333333,109.2) translate(0.004999999999999005 14.4)"/><path d="M720 120h175c2.76 0 5 2.24 5 5v135" stroke="#999" stroke-width="2" fill="none"/><path d="M741 130h-2v-20h2zM910.9 259.55l-.9.45h-1.12L900 242.24 891.12 260H890l-.9-.45 10.9-21.8z" fill="#999"/><path d="M910 230l-.5 3.16-1.43 2.75-2.16 2.17-2.74 1.42-3.16.5-3.16-.5-2.75-1.43-2.17-2.16-1.42-2.74-.5-3.16.5-3.16 1.43-2.75 2.16-2.17 2.74-1.42 3.16-.5 3.16.5 2.75 1.43 2.17 2.16 1.42 2.74z" fill="#fff"/><path d="M903.48 219.55l3.02 1.56 2.4 2.4 1.55 3.02.54 3.32-1 .16 1 .16-.55 3.32-1.56 3.02-2.4 2.4-3.02 1.55-3.48.56-3.48-.55-3.02-1.56-2.4-2.4-1.55-3.02L889 230l.55-3.48 1.56-3.02 2.4-2.4 3.02-1.55L900 219zm-6.32 1.92l-2.47 1.28-1.95 1.94-1.28 2.46L891 230l.47 2.84 1.28 2.47 1.94 1.95 2.46 1.28 2.84.46 2.84-.47 2.47-1.28 1.95-1.94 1.28-2.46.46-2.84-.47-2.84-1.28-2.47-1.94-1.95-2.46-1.28L900 221z" fill="#999"/><path fill="#fff" d="M858.08 178.8h83.86v21.6h-83.86z"/><use xlink:href="#i" transform="matrix(1,0,0,1,858.075,178.8) translate(0.005000000000002558 14.4)"/><path fill="#fff" d="M766.38 109.2h53.9v21.6h-53.9z"/><use xlink:href="#h" transform="matrix(1,0,0,1,766.3833333333333,109.2) translate(0.004999999999999005 14.4)"/><path d="M900 420v159" stroke="#999" stroke-width="2" fill="none"/><path d="M910 441h-20v-2h20zM910.9 578.55l-1.8.9-9.1-18.2-9.1 18.2-1.8-.9 10.9-21.8z" fill="#999"/><path d="M910 549l-.5 3.16-1.43 2.75-2.16 2.17-2.74 1.42-3.16.5-3.16-.5-2.75-1.43-2.17-2.16-1.42-2.74-.5-3.16.5-3.16 1.43-2.75 2.16-2.17 2.74-1.42 3.16-.5 3.16.5 2.75 1.43 2.17 2.16 1.42 2.74z" fill="#fff"/><path d="M903.48 538.55l3.02 1.56 2.4 2.4 1.55 3.02.54 3.32-1 .16 1 .16-.55 3.32-1.56 3.02-2.4 2.4-3.02 1.55-3.48.56-3.48-.55-3.02-1.56-2.4-2.4-1.55-3.02L889 549l.55-3.48 1.56-3.02 2.4-2.4 3.02-1.55L900 538zm-6.32 1.92l-2.47 1.28-1.95 1.94-1.28 2.46L891 549l.47 2.84 1.28 2.47 1.94 1.95 2.46 1.28 2.84.46 2.84-.47 2.47-1.28 1.95-1.94 1.28-2.46.46-2.84-.47-2.84-1.28-2.47-1.94-1.95-2.46-1.28L900 540z" fill="#999"/><path fill="#fff" d="M854.08 512.53h91.86v21.6h-91.86z"/><use xlink:href="#j" transform="matrix(1,0,0,1,854.075,512.5333333333334) translate(0.005000000000002558 14.4)"/><path fill="#fff" d="M862.58 444.53h74.86v21.6h-74.86z"/><use xlink:href="#k" transform="matrix(1,0,0,1,862.575,444.5333333333333) translate(0.005000000000002558 14.4)"/><path d="M160 585c0-2.76 2.24-5 5-5h150c2.76 0 5 2.24 5 5v150c0 2.76-2.24 5-5 5H165c-2.76 0-5-2.24-5-5z" stroke="#666" stroke-width="2" fill="#fff"/><use xlink:href="#l" transform="matrix(1,0,0,1,165,585) translate(58.525 78.60000000000001)"/><path d="M240 580V346c0-2.76 2.24-5 5-5h74" stroke="#999" stroke-width="2" fill="none"/><path d="M250.9 579.55l-.9.45h-1.12L240 562.24 231.12 580H230l-.9-.45 10.9-21.8z" fill="#999"/><path d="M250 550l-.5 3.16-1.43 2.75-2.16 2.17-2.74 1.42-3.16.5-3.16-.5-2.75-1.43-2.17-2.16-1.42-2.74-.5-3.16.5-3.16 1.43-2.75 2.16-2.17 2.74-1.42 3.16-.5 3.16.5 2.75 1.43 2.17 2.16 1.42 2.74z" fill="#fff"/><path d="M243.48 539.55l3.02 1.56 2.4 2.4 1.55 3.02.54 3.32-1 .16 1 .16-.55 3.32-1.56 3.02-2.4 2.4-3.02 1.55-3.48.56-3.48-.55-3.02-1.56-2.4-2.4-1.55-3.02L229 550l.55-3.48 1.56-3.02 2.4-2.4 3.02-1.55L240 539zm-6.32 1.92l-2.47 1.28-1.95 1.94-1.28 2.46L231 550l.47 2.84 1.28 2.47 1.94 1.95 2.46 1.28 2.84.46 2.84-.47 2.47-1.28 1.95-1.94 1.28-2.46.46-2.84-.47-2.84-1.28-2.47-1.94-1.95-2.46-1.28L240 541zM300 351h-2v-20h2z" fill="#999"/><path fill="#fff" d="M222.05 492.18h35.9v21.6h-35.9z"/><use xlink:href="#m" transform="matrix(1,0,0,1,222.05,492.17841726618707) translate(0.004999999999999005 14.4)"/><path d="M480 340h75c2.76 0 5 2.24 5 5v235" stroke="#999" stroke-width="2" fill="none"/><path d="M501 350h-2v-20h2zM570.9 579.55l-.9.45h-1.12L560 562.24 551.12 580H550l-.9-.45 10.9-21.8z" fill="#999"/><path d="M570 550l-.5 3.16-1.43 2.75-2.16 2.17-2.74 1.42-3.16.5-3.16-.5-2.75-1.43-2.17-2.16-1.42-2.74-.5-3.16.5-3.16 1.43-2.75 2.16-2.17 2.74-1.42 3.16-.5 3.16.5 2.75 1.43 2.17 2.16 1.42 2.74z" fill="#fff"/><path d="M563.48 539.55l3.02 1.56 2.4 2.4 1.55 3.02.54 3.32-1 .16 1 .16-.55 3.32-1.56 3.02-2.4 2.4-3.02 1.55-3.48.56-3.48-.55-3.02-1.56-2.4-2.4-1.55-3.02L549 550l.55-3.48 1.56-3.02 2.4-2.4 3.02-1.55L560 539zm-6.32 1.92l-2.47 1.28-1.95 1.94-1.28 2.46L551 550l.47 2.84 1.28 2.47 1.94 1.95 2.46 1.28 2.84.46 2.84-.47 2.47-1.28 1.95-1.94 1.28-2.46.46-2.84-.47-2.84-1.28-2.47-1.94-1.95-2.46-1.28L560 541z" fill="#999"/><path fill="#fff" d="M527.52 493.87h64.96v21.6h-64.96z"/><use xlink:href="#n" transform="matrix(1,0,0,1,527.525,493.8666666666667) translate(0.005000000000002558 14.4)"/><path d="M560 740v180" stroke="#999" stroke-width="2" fill="none"/><path d="M570 761h-20v-2h20zM570.9 919.55l-.9.45h-1.12L560 902.24 551.12 920H550l-.9-.45 10.9-21.8z" fill="#999"/><path d="M570 890l-.5 3.16-1.43 2.75-2.16 2.17-2.74 1.42-3.16.5-3.16-.5-2.75-1.43-2.17-2.16-1.42-2.74-.5-3.16.5-3.16 1.43-2.75 2.16-2.17 2.74-1.42 3.16-.5 3.16.5 2.75 1.43 2.17 2.16 1.42 2.74z" fill="#fff"/><path d="M563.48 879.55l3.02 1.56 2.4 2.4 1.55 3.02.54 3.32-1 .16 1 .16-.55 3.32-1.56 3.02-2.4 2.4-3.02 1.55-3.48.56-3.48-.55-3.02-1.56-2.4-2.4-1.55-3.02L549 890l.55-3.48 1.56-3.02 2.4-2.4 3.02-1.55L560 879zm-6.32 1.92l-2.47 1.28-1.95 1.94-1.28 2.46L551 890l.47 2.84 1.28 2.47 1.94 1.95 2.46 1.28 2.84.46 2.84-.47 2.47-1.28 1.95-1.94 1.28-2.46.46-2.84-.47-2.84-1.28-2.47-1.94-1.95-2.46-1.28L560 881z" fill="#999"/><path fill="#fff" d="M502.02 819.2h115.96v21.6H502.02z"/><use xlink:href="#o" transform="matrix(1,0,0,1,502.025,819.2) translate(0.005000000000002558 14.4)"/><path d="M481 293.33h234c2.76 0 5 2.24 5 5v305.34c0 2.76 2.24 5 5 5h94" stroke="#999" stroke-width="2" fill="none"/><path d="M502 303.33h-2v-20h2zM819.45 599.56l-18.2 9.1 18.2 9.1-.9 1.8-21.8-10.9 21.8-10.9z" fill="#999"/><path d="M799 608.67l-.5 3.16-1.43 2.74-2.16 2.17-2.74 1.42-3.16.5-3.16-.5-2.75-1.42-2.17-2.17-1.42-2.74-.5-3.16.5-3.16 1.43-2.74 2.16-2.16 2.74-1.42 3.16-.5 3.16.5 2.75 1.42 2.17 2.16 1.42 2.75z" fill="#fff"/><path d="M792.48 598.2l3.02 1.58 2.4 2.38 1.55 3.03.54 3.3-1 .17 1 .16-.55 3.3-1.56 3.04-2.4 2.38-3.02 1.57-3.48.56-3.48-.56-3.02-1.57-2.4-2.38-1.55-3.03-.56-3.47.55-3.48 1.56-3.04 2.4-2.38 3.02-1.57 3.48-.55zm-6.32 1.94l-2.47 1.27-1.95 1.96-1.28 2.46-.46 2.85.47 2.84 1.28 2.48 1.94 1.94 2.46 1.28 2.84.45 2.84-.45 2.47-1.28 1.95-1.94 1.28-2.47.46-2.83-.47-2.85-1.28-2.46-1.94-1.95-2.46-1.26-2.84-.46z" fill="#999"/><path fill="#fff" d="M674.08 553.06h91.86v21.6h-91.86z"/><use xlink:href="#j" transform="matrix(1,0,0,1,674.075,553.0623188405797) translate(0.005000000000002558 14.4)"/><path fill="#fff" d="M536.5 282.53h82.87v21.6H536.5z"/><use xlink:href="#p" transform="matrix(1,0,0,1,536.5097826086957,282.5333333333333) translate(0.005000000000002558 14.4)"/><path d="M820 660H641" stroke="#999" stroke-width="2" fill="none"/><path d="M663.24 660l-21.8 10.9-.9-1.8 18.22-9.1-18.2-9.1.9-1.8z" fill="#999"/><path d="M681 660l-.5 3.16-1.43 2.75-2.16 2.17-2.74 1.42-3.16.5-3.16-.5-2.75-1.43-2.17-2.16-1.42-2.74-.5-3.16.5-3.16 1.43-2.75 2.16-2.17 2.74-1.42 3.16-.5 3.16.5 2.75 1.43 2.17 2.16 1.42 2.74z" fill="#fff"/><path d="M674.48 649.55l3.02 1.56 2.4 2.4 1.55 3.02.54 3.32-1 .16 1 .16-.55 3.32-1.56 3.02-2.4 2.4-3.02 1.55-3.48.56-3.48-.55-3.02-1.56-2.4-2.4-1.55-3.02L660 660l.55-3.48 1.56-3.02 2.4-2.4 3.02-1.55L671 649zm-6.32 1.92l-2.47 1.28-1.95 1.94-1.28 2.46L662 660l.47 2.84 1.28 2.47 1.94 1.95 2.46 1.28 2.84.46 2.84-.47 2.47-1.28 1.95-1.94 1.28-2.46.46-2.84-.47-2.84-1.28-2.47-1.94-1.95-2.46-1.28L671 651z" fill="#999"/><path d="M479 598h-74c-2.76 0-5 2.24-5 5v39.33c0 2.76 2.24 5 5 5h74" stroke="#999" stroke-width="2" fill="none"/><path d="M480 599h-1v-2h1zM479.45 638.23l-18.2 9.1 18.2 9.1-.9 1.8-21.8-10.9 21.8-10.9z" fill="#999"/><path d="M459 647.33l-.5 3.16-1.43 2.74-2.16 2.16-2.74 1.42-3.16.5-3.16-.5-2.75-1.42-2.17-2.16-1.42-2.75-.5-3.17.5-3.16 1.43-2.74 2.16-2.17 2.74-1.42 3.16-.5 3.16.5 2.75 1.42 2.17 2.17 1.42 2.74z" fill="#fff"/><path d="M452.48 636.88l3.02 1.57 2.4 2.38 1.55 3.03.54 3.3-1 .17 1 .16-.55 3.3-1.56 3.04-2.4 2.38-3.02 1.57-3.48.55-3.48-.56-3.02-1.58-2.4-2.38-1.55-3.03-.56-3.47.55-3.47 1.56-3.03 2.4-2.38 3.02-1.57 3.48-.56zm-6.32 1.92l-2.47 1.28-1.95 1.94-1.28 2.47-.46 2.83.47 2.85 1.28 2.46 1.94 1.95 2.46 1.26 2.84.46 2.84-.46 2.47-1.27 1.95-1.96 1.28-2.46.46-2.85-.47-2.84-1.28-2.48-1.94-1.94-2.46-1.28-2.84-.45z" fill="#999"/><path fill="#fff" d="M341.1 611.87h117.8v21.6H341.1z"/><use xlink:href="#q" transform="matrix(1,0,0,1,341.1,611.8666666666668) translate(0.005000000000002558 14.4)"/><path d="M321 708.67h158" stroke="#999" stroke-width="2" fill="none"/><path d="M321 709.67h-1v-2h1zM479.45 699.56l-18.2 9.1 18.2 9.1-.9 1.8-21.8-10.9 21.8-10.9z" fill="#999"/><path d="M459 708.67l-.5 3.16-1.43 2.74-2.16 2.17-2.74 1.42-3.16.5-3.16-.5-2.75-1.42-2.17-2.17-1.42-2.74-.5-3.16.5-3.16 1.43-2.74 2.16-2.16 2.74-1.42 3.16-.5 3.16.5 2.75 1.42 2.17 2.16 1.42 2.75z" fill="#fff"/><path d="M452.48 698.2l3.02 1.58 2.4 2.38 1.55 3.03.54 3.3-1 .17 1 .16-.55 3.3-1.56 3.04-2.4 2.38-3.02 1.57-3.48.56-3.48-.56-3.02-1.57-2.4-2.38-1.55-3.03-.56-3.47.55-3.48 1.56-3.04 2.4-2.38 3.02-1.57 3.48-.55zm-6.32 1.94l-2.47 1.27-1.95 1.96-1.28 2.46-.46 2.85.47 2.84 1.28 2.48 1.94 1.94 2.46 1.28 2.84.45 2.84-.45 2.47-1.28 1.95-1.94 1.28-2.47.46-2.83-.47-2.85-1.28-2.46-1.94-1.95-2.46-1.26-2.84-.46z" fill="#999"/><path fill="#fff" d="M346.2 697.87h64.95v21.6H346.2z"/><use xlink:href="#n" transform="matrix(1,0,0,1,346.19166666666666,697.8666666666667) translate(0.005000000000002558 14.4)"/><path d="M40 45c0-2.76 2.24-5 5-5h230c2.76 0 5 2.24 5 5v58.67c0 2.76-2.24 5-5 5H45c-2.76 0-5-2.24-5-5z" fill="none"/><use xlink:href="#r" transform="matrix(1,0,0,1,45,45) translate(0 19.555555555555557)"/><use xlink:href="#s" transform="matrix(1,0,0,1,45,45) translate(0 48.88888888888889)"/><use xlink:href="#t" transform="matrix(1,0,0,1,45,45) translate(67.83333333333333 48.88888888888889)"/><defs><path fill="#333" d="M240 0l2-218c-23 76-54 145-80 218h-23L58-218 59 0H30v-248h44l77 211c21-75 51-140 76-211h43V0h-30" id="u"/><path fill="#333" d="M33 0v-248h34V0H33" id="v"/><path fill="#333" d="M30-248c118-7 216 8 213 122C240-48 200 0 122 0H30v-248zM63-27c89 8 146-16 146-99s-60-101-146-95v194" id="w"/><path fill="#333" d="M141-36C126-15 110 5 73 4 37 3 15-17 15-53c-1-64 63-63 125-63 3-35-9-54-41-54-24 1-41 7-42 31l-33-3c5-37 33-52 76-52 45 0 72 20 72 64v82c-1 20 7 32 28 27v20c-31 9-61-2-59-35zM48-53c0 20 12 33 32 33 41-3 63-29 60-74-43 2-92-5-92 41" id="x"/><path fill="#333" d="M59-47c-2 24 18 29 38 22v24C64 9 27 4 27-40v-127H5v-23h24l9-43h21v43h35v23H59v120" id="y"/><g id="a"><use transform="matrix(0.05,0,0,0.05,0,0)" xlink:href="#u"/><use transform="matrix(0.05,0,0,0.05,14.950000000000001,0)" xlink:href="#v"/><use transform="matrix(0.05,0,0,0.05,19.950000000000003,0)" xlink:href="#w"/><use transform="matrix(0.05,0,0,0.05,32.900000000000006,0)" xlink:href="#x"/><use transform="matrix(0.05,0,0,0.05,42.900000000000006,0)" xlink:href="#y"/><use transform="matrix(0.05,0,0,0.05,47.900000000000006,0)" xlink:href="#x"/></g><path fill="#333" d="M117-194c89-4 53 116 60 194h-32v-121c0-31-8-49-39-48C34-167 62-67 57 0H25l-1-190h30c1 10-1 24 2 32 11-22 29-35 61-36" id="z"/><path fill="#333" d="M100-194c63 0 86 42 84 106H49c0 40 14 67 53 68 26 1 43-12 49-29l28 8c-11 28-37 45-77 45C44 4 14-33 15-96c1-61 26-98 85-98zm52 81c6-60-76-77-97-28-3 7-6 17-6 28h103" id="A"/><path fill="#333" d="M114-163C36-179 61-72 57 0H25l-1-190h30c1 12-1 29 2 39 6-27 23-49 58-41v29" id="B"/><path fill="#333" d="M96-169c-40 0-48 33-48 73s9 75 48 75c24 0 41-14 43-38l32 2c-6 37-31 61-74 61-59 0-76-41-82-99-10-93 101-131 147-64 4 7 5 14 7 22l-32 3c-4-21-16-35-41-35" id="C"/><path fill="#333" d="M24-231v-30h32v30H24zM24 0v-190h32V0H24" id="D"/><path fill="#333" d="M100-194c62-1 85 37 85 99 1 63-27 99-86 99S16-35 15-95c0-66 28-99 85-99zM99-20c44 1 53-31 53-75 0-43-8-75-51-75s-53 32-53 75 10 74 51 75" id="E"/><g id="b"><use transform="matrix(0.05,0,0,0.05,0,0)" xlink:href="#v"/><use transform="matrix(0.05,0,0,0.05,5,0)" xlink:href="#z"/><use transform="matrix(0.05,0,0,0.05,15,0)" xlink:href="#y"/><use transform="matrix(0.05,0,0,0.05,20,0)" xlink:href="#A"/><use transform="matrix(0.05,0,0,0.05,30,0)" xlink:href="#B"/><use transform="matrix(0.05,0,0,0.05,35.95,0)" xlink:href="#x"/><use transform="matrix(0.05,0,0,0.05,45.95,0)" xlink:href="#C"/><use transform="matrix(0.05,0,0,0.05,54.95,0)" xlink:href="#y"/><use transform="matrix(0.05,0,0,0.05,59.95,0)" xlink:href="#D"/><use transform="matrix(0.05,0,0,0.05,63.900000000000006,0)" xlink:href="#E"/><use transform="matrix(0.05,0,0,0.05,73.9,0)" xlink:href="#z"/></g><g id="c"><use transform="matrix(0.05,0,0,0.05,0,0)" xlink:href="#v"/><use transform="matrix(0.05,0,0,0.05,5,0)" xlink:href="#z"/><use transform="matrix(0.05,0,0,0.05,15,0)" xlink:href="#y"/><use transform="matrix(0.05,0,0,0.05,20,0)" xlink:href="#A"/><use transform="matrix(0.05,0,0,0.05,30,0)" xlink:href="#B"/><use transform="matrix(0.05,0,0,0.05,35.95,0)" xlink:href="#x"/><use transform="matrix(0.05,0,0,0.05,45.95,0)" xlink:href="#C"/><use transform="matrix(0.05,0,0,0.05,54.95,0)" xlink:href="#y"/><use transform="matrix(0.05,0,0,0.05,59.95,0)" xlink:href="#E"/><use transform="matrix(0.05,0,0,0.05,69.95,0)" xlink:href="#B"/></g><path fill="#333" d="M30-248c87 1 191-15 191 75 0 78-77 80-158 76V0H30v-248zm33 125c57 0 124 11 124-50 0-59-68-47-124-48v98" id="F"/><path fill="#333" d="M115-194c55 1 70 41 70 98S169 2 115 4C84 4 66-9 55-30l1 105H24l-1-265h31l2 30c10-21 28-34 59-34zm-8 174c40 0 45-34 45-75s-6-73-45-74c-42 0-51 32-51 76 0 43 10 73 51 73" id="G"/><g id="d"><use transform="matrix(0.05,0,0,0.05,0,0)" xlink:href="#F"/><use transform="matrix(0.05,0,0,0.05,12,0)" xlink:href="#x"/><use transform="matrix(0.05,0,0,0.05,22,0)" xlink:href="#B"/><use transform="matrix(0.05,0,0,0.05,27.950000000000003,0)" xlink:href="#y"/><use transform="matrix(0.05,0,0,0.05,32.95,0)" xlink:href="#D"/><use transform="matrix(0.05,0,0,0.05,36.900000000000006,0)" xlink:href="#C"/><use transform="matrix(0.05,0,0,0.05,45.900000000000006,0)" xlink:href="#D"/><use transform="matrix(0.05,0,0,0.05,49.85000000000001,0)" xlink:href="#G"/><use transform="matrix(0.05,0,0,0.05,59.85,0)" xlink:href="#x"/><use transform="matrix(0.05,0,0,0.05,69.85000000000001,0)" xlink:href="#z"/><use transform="matrix(0.05,0,0,0.05,79.85000000000001,0)" xlink:href="#y"/></g><path fill="#333" d="M233-177c-1 41-23 64-60 70L243 0h-38l-65-103H63V0H30v-248c88 3 205-21 203 71zM63-129c60-2 137 13 137-47 0-61-80-42-137-45v92" id="H"/><path fill="#333" d="M177-190C167-65 218 103 67 71c-23-6-38-20-44-43l32-5c15 47 100 32 89-28v-30C133-14 115 1 83 1 29 1 15-40 15-95c0-56 16-97 71-98 29-1 48 16 59 35 1-10 0-23 2-32h30zM94-22c36 0 50-32 50-73 0-42-14-75-50-75-39 0-46 34-46 75s6 73 46 73" id="I"/><g id="e"><use transform="matrix(0.05,0,0,0.05,0,0)" xlink:href="#H"/><use transform="matrix(0.05,0,0,0.05,12.950000000000001,0)" xlink:href="#A"/><use transform="matrix(0.05,0,0,0.05,22.950000000000003,0)" xlink:href="#I"/><use transform="matrix(0.05,0,0,0.05,32.95,0)" xlink:href="#D"/><use transform="matrix(0.05,0,0,0.05,36.900000000000006,0)" xlink:href="#E"/><use transform="matrix(0.05,0,0,0.05,46.900000000000006,0)" xlink:href="#z"/></g><path fill="#333" d="M63-220v92h138v28H63V0H30v-248h175v28H63" id="J"/><path fill="#333" d="M84 4C-5 8 30-112 23-190h32v120c0 31 7 50 39 49 72-2 45-101 50-169h31l1 190h-30c-1-10 1-25-2-33-11 22-28 36-60 37" id="K"/><g id="f"><use transform="matrix(0.05,0,0,0.05,0,0)" xlink:href="#J"/><use transform="matrix(0.05,0,0,0.05,10.950000000000001,0)" xlink:href="#A"/><use transform="matrix(0.05,0,0,0.05,20.950000000000003,0)" xlink:href="#x"/><use transform="matrix(0.05,0,0,0.05,30.950000000000003,0)" xlink:href="#y"/><use transform="matrix(0.05,0,0,0.05,35.95,0)" xlink:href="#K"/><use transform="matrix(0.05,0,0,0.05,45.95,0)" xlink:href="#B"/><use transform="matrix(0.05,0,0,0.05,51.900000000000006,0)" xlink:href="#A"/></g><path fill="#333" d="M135-143c-3-34-86-38-87 0 15 53 115 12 119 90S17 21 10-45l28-5c4 36 97 45 98 0-10-56-113-15-118-90-4-57 82-63 122-42 12 7 21 19 24 35" id="L"/><g id="g"><use transform="matrix(0.05,0,0,0.05,0,0)" xlink:href="#D"/><use transform="matrix(0.05,0,0,0.05,3.95,0)" xlink:href="#z"/><use transform="matrix(0.05,0,0,0.05,13.949999999999998,0)" xlink:href="#y"/><use transform="matrix(0.05,0,0,0.05,18.95,0)" xlink:href="#A"/><use transform="matrix(0.05,0,0,0.05,28.950000000000003,0)" xlink:href="#B"/><use transform="matrix(0.05,0,0,0.05,34.9,0)" xlink:href="#x"/><use transform="matrix(0.05,0,0,0.05,44.9,0)" xlink:href="#C"/><use transform="matrix(0.05,0,0,0.05,53.900000000000006,0)" xlink:href="#y"/><use transform="matrix(0.05,0,0,0.05,58.900000000000006,0)" xlink:href="#D"/><use transform="matrix(0.05,0,0,0.05,62.85,0)" xlink:href="#E"/><use transform="matrix(0.05,0,0,0.05,72.85,0)" xlink:href="#z"/><use transform="matrix(0.05,0,0,0.05,82.85,0)" xlink:href="#L"/></g><path fill="#333" d="M210-169c-67 3-38 105-44 169h-31v-121c0-29-5-50-35-48C34-165 62-65 56 0H25l-1-190h30c1 10-1 24 2 32 10-44 99-50 107 0 11-21 27-35 58-36 85-2 47 119 55 194h-31v-121c0-29-5-49-35-48" id="M"/><path fill="#333" d="M85-194c31 0 48 13 60 33l-1-100h32l1 261h-30c-2-10 0-23-3-31C134-8 116 4 85 4 32 4 16-35 15-94c0-66 23-100 70-100zm9 24c-40 0-46 34-46 75 0 40 6 74 45 74 42 0 51-32 51-76 0-42-9-74-50-73" id="N"/><g id="h"><use transform="matrix(0.05,0,0,0.05,0,0)" xlink:href="#M"/><use transform="matrix(0.05,0,0,0.05,14.950000000000001,0)" xlink:href="#D"/><use transform="matrix(0.05,0,0,0.05,18.900000000000002,0)" xlink:href="#N"/><use transform="matrix(0.05,0,0,0.05,28.900000000000002,0)" xlink:href="#x"/><use transform="matrix(0.05,0,0,0.05,38.900000000000006,0)" xlink:href="#y"/><use transform="matrix(0.05,0,0,0.05,43.900000000000006,0)" xlink:href="#x"/></g><g id="i"><use transform="matrix(0.05,0,0,0.05,0,0)" xlink:href="#D"/><use transform="matrix(0.05,0,0,0.05,3.95,0)" xlink:href="#z"/><use transform="matrix(0.05,0,0,0.05,13.949999999999998,0)" xlink:href="#y"/><use transform="matrix(0.05,0,0,0.05,18.95,0)" xlink:href="#A"/><use transform="matrix(0.05,0,0,0.05,28.950000000000003,0)" xlink:href="#B"/><use transform="matrix(0.05,0,0,0.05,34.9,0)" xlink:href="#x"/><use transform="matrix(0.05,0,0,0.05,44.9,0)" xlink:href="#C"/><use transform="matrix(0.05,0,0,0.05,53.900000000000006,0)" xlink:href="#y"/><use transform="matrix(0.05,0,0,0.05,58.900000000000006,0)" xlink:href="#E"/><use transform="matrix(0.05,0,0,0.05,68.9,0)" xlink:href="#B"/><use transform="matrix(0.05,0,0,0.05,74.85000000000001,0)" xlink:href="#L"/></g><g id="j"><use transform="matrix(0.05,0,0,0.05,0,0)" xlink:href="#G"/><use transform="matrix(0.05,0,0,0.05,10,0)" xlink:href="#x"/><use transform="matrix(0.05,0,0,0.05,20,0)" xlink:href="#B"/><use transform="matrix(0.05,0,0,0.05,25.950000000000003,0)" xlink:href="#y"/><use transform="matrix(0.05,0,0,0.05,30.950000000000003,0)" xlink:href="#D"/><use transform="matrix(0.05,0,0,0.05,34.9,0)" xlink:href="#C"/><use transform="matrix(0.05,0,0,0.05,43.9,0)" xlink:href="#D"/><use transform="matrix(0.05,0,0,0.05,47.85,0)" xlink:href="#G"/><use transform="matrix(0.05,0,0,0.05,57.85,0)" xlink:href="#x"/><use transform="matrix(0.05,0,0,0.05,67.85,0)" xlink:href="#z"/><use transform="matrix(0.05,0,0,0.05,77.85,0)" xlink:href="#y"/><use transform="matrix(0.05,0,0,0.05,82.85,0)" xlink:href="#L"/></g><g id="k"><use transform="matrix(0.05,0,0,0.05,0,0)" xlink:href="#D"/><use transform="matrix(0.05,0,0,0.05,3.95,0)" xlink:href="#z"/><use transform="matrix(0.05,0,0,0.05,13.949999999999998,0)" xlink:href="#y"/><use transform="matrix(0.05,0,0,0.05,18.95,0)" xlink:href="#A"/><use transform="matrix(0.05,0,0,0.05,28.950000000000003,0)" xlink:href="#B"/><use transform="matrix(0.05,0,0,0.05,34.9,0)" xlink:href="#x"/><use transform="matrix(0.05,0,0,0.05,44.9,0)" xlink:href="#C"/><use transform="matrix(0.05,0,0,0.05,53.900000000000006,0)" xlink:href="#y"/><use transform="matrix(0.05,0,0,0.05,58.900000000000006,0)" xlink:href="#E"/><use transform="matrix(0.05,0,0,0.05,68.9,0)" xlink:href="#B"/></g><path fill="#333" d="M30 0v-248h33v221h125V0H30" id="O"/><path fill="#333" d="M143 0L79-87 56-68V0H24v-261h32v163l83-92h37l-77 82L181 0h-38" id="P"/><g id="l"><use transform="matrix(0.05,0,0,0.05,0,0)" xlink:href="#O"/><use transform="matrix(0.05,0,0,0.05,10,0)" xlink:href="#D"/><use transform="matrix(0.05,0,0,0.05,13.949999999999998,0)" xlink:href="#z"/><use transform="matrix(0.05,0,0,0.05,23.95,0)" xlink:href="#P"/></g><path fill="#333" d="M24 0v-261h32V0H24" id="Q"/><g id="m"><use transform="matrix(0.05,0,0,0.05,0,0)" xlink:href="#Q"/><use transform="matrix(0.05,0,0,0.05,3.95,0)" xlink:href="#D"/><use transform="matrix(0.05,0,0,0.05,7.9,0)" xlink:href="#z"/><use transform="matrix(0.05,0,0,0.05,17.9,0)" xlink:href="#P"/><use transform="matrix(0.05,0,0,0.05,26.899999999999995,0)" xlink:href="#L"/></g><path fill="#333" d="M101-234c-31-9-42 10-38 44h38v23H63V0H32v-167H5v-23h27c-7-52 17-82 69-68v24" id="R"/><g id="n"><use transform="matrix(0.05,0,0,0.05,0,0)" xlink:href="#R"/><use transform="matrix(0.05,0,0,0.05,5,0)" xlink:href="#A"/><use transform="matrix(0.05,0,0,0.05,15,0)" xlink:href="#x"/><use transform="matrix(0.05,0,0,0.05,25,0)" xlink:href="#y"/><use transform="matrix(0.05,0,0,0.05,30,0)" xlink:href="#K"/><use transform="matrix(0.05,0,0,0.05,40,0)" xlink:href="#B"/><use transform="matrix(0.05,0,0,0.05,45.95,0)" xlink:href="#A"/><use transform="matrix(0.05,0,0,0.05,55.95,0)" xlink:href="#L"/></g><path fill="#333" d="M145-31C134-9 116 4 85 4 32 4 16-35 15-94c0-59 17-99 70-100 32-1 48 14 60 33 0-11-1-24 2-32h30l-1 268h-32zM93-21c41 0 51-33 51-76s-8-73-50-73c-40 0-46 35-46 75s5 74 45 74" id="S"/><g id="o"><use transform="matrix(0.05,0,0,0.05,0,0)" xlink:href="#L"/><use transform="matrix(0.05,0,0,0.05,9,0)" xlink:href="#A"/><use transform="matrix(0.05,0,0,0.05,19,0)" xlink:href="#S"/><use transform="matrix(0.05,0,0,0.05,29,0)" xlink:href="#K"/><use transform="matrix(0.05,0,0,0.05,39,0)" xlink:href="#A"/><use transform="matrix(0.05,0,0,0.05,49,0)" xlink:href="#z"/><use transform="matrix(0.05,0,0,0.05,59,0)" xlink:href="#C"/><use transform="matrix(0.05,0,0,0.05,68,0)" xlink:href="#A"/><use transform="matrix(0.05,0,0,0.05,78,0)" xlink:href="#w"/><use transform="matrix(0.05,0,0,0.05,90.95,0)" xlink:href="#x"/><use transform="matrix(0.05,0,0,0.05,100.95,0)" xlink:href="#y"/><use transform="matrix(0.05,0,0,0.05,105.95,0)" xlink:href="#x"/></g><g id="p"><use transform="matrix(0.05,0,0,0.05,0,0)" xlink:href="#D"/><use transform="matrix(0.05,0,0,0.05,3.95,0)" xlink:href="#z"/><use transform="matrix(0.05,0,0,0.05,13.949999999999998,0)" xlink:href="#y"/><use transform="matrix(0.05,0,0,0.05,18.95,0)" xlink:href="#A"/><use transform="matrix(0.05,0,0,0.05,28.950000000000003,0)" xlink:href="#B"/><use transform="matrix(0.05,0,0,0.05,34.9,0)" xlink:href="#x"/><use transform="matrix(0.05,0,0,0.05,44.9,0)" xlink:href="#C"/><use transform="matrix(0.05,0,0,0.05,53.900000000000006,0)" xlink:href="#y"/><use transform="matrix(0.05,0,0,0.05,58.900000000000006,0)" xlink:href="#D"/><use transform="matrix(0.05,0,0,0.05,62.85,0)" xlink:href="#E"/><use transform="matrix(0.05,0,0,0.05,72.85,0)" xlink:href="#z"/></g><g id="q"><use transform="matrix(0.05,0,0,0.05,0,0)" xlink:href="#Q"/><use transform="matrix(0.05,0,0,0.05,3.95,0)" xlink:href="#D"/><use transform="matrix(0.05,0,0,0.05,7.9,0)" xlink:href="#z"/><use transform="matrix(0.05,0,0,0.05,17.9,0)" xlink:href="#P"/><use transform="matrix(0.05,0,0,0.05,26.899999999999995,0)" xlink:href="#A"/><use transform="matrix(0.05,0,0,0.05,36.9,0)" xlink:href="#N"/><use transform="matrix(0.05,0,0,0.05,46.9,0)" xlink:href="#J"/><use transform="matrix(0.05,0,0,0.05,57.85,0)" xlink:href="#A"/><use transform="matrix(0.05,0,0,0.05,67.85,0)" xlink:href="#x"/><use transform="matrix(0.05,0,0,0.05,77.85,0)" xlink:href="#y"/><use transform="matrix(0.05,0,0,0.05,82.85,0)" xlink:href="#K"/><use transform="matrix(0.05,0,0,0.05,92.85,0)" xlink:href="#B"/><use transform="matrix(0.05,0,0,0.05,98.8,0)" xlink:href="#A"/><use transform="matrix(0.05,0,0,0.05,108.80000000000001,0)" xlink:href="#L"/></g><path fill="#333" d="M16-82v-28h88v28H16" id="T"/><g id="r"><use transform="matrix(0.06790123456790123,0,0,0.06790123456790123,0,0)" xlink:href="#u"/><use transform="matrix(0.06790123456790123,0,0,0.06790123456790123,20.30246913580247,0)" xlink:href="#v"/><use transform="matrix(0.06790123456790123,0,0,0.06790123456790123,27.09259259259259,0)" xlink:href="#T"/><use transform="matrix(0.06790123456790123,0,0,0.06790123456790123,35.172839506172835,0)" xlink:href="#u"/><use transform="matrix(0.06790123456790123,0,0,0.06790123456790123,55.4753086419753,0)" xlink:href="#E"/><use transform="matrix(0.06790123456790123,0,0,0.06790123456790123,69.05555555555554,0)" xlink:href="#N"/><use transform="matrix(0.06790123456790123,0,0,0.06790123456790123,82.6358024691358,0)" xlink:href="#A"/><use transform="matrix(0.06790123456790123,0,0,0.06790123456790123,96.21604938271605,0)" xlink:href="#Q"/></g><path fill="#333" d="M30 0v-248h187v28H63v79h144v27H63v87h162V0H30" id="U"/><path fill="#333" d="M179-190L93 31C79 59 56 82 12 73V49c39 6 53-20 64-50L1-190h34L92-34l54-156h33" id="V"/><g id="s"><use transform="matrix(0.06790123456790123,0,0,0.06790123456790123,0,0)" xlink:href="#U"/><use transform="matrix(0.06790123456790123,0,0,0.06790123456790123,16.296296296296294,0)" xlink:href="#z"/><use transform="matrix(0.06790123456790123,0,0,0.06790123456790123,29.87654320987654,0)" xlink:href="#y"/><use transform="matrix(0.06790123456790123,0,0,0.06790123456790123,36.666666666666664,0)" xlink:href="#D"/><use transform="matrix(0.06790123456790123,0,0,0.06790123456790123,42.03086419753086,0)" xlink:href="#y"/><use transform="matrix(0.06790123456790123,0,0,0.06790123456790123,48.82098765432099,0)" xlink:href="#V"/></g><path fill="#333" d="M106-169C34-169 62-67 57 0H25v-261h32l-1 103c12-21 28-36 61-36 89 0 53 116 60 194h-32v-121c2-32-8-49-39-48" id="W"/><g id="t"><use transform="matrix(0.06790123456790123,0,0,0.06790123456790123,0,0)" xlink:href="#H"/><use transform="matrix(0.06790123456790123,0,0,0.06790123456790123,17.586419753086417,0)" xlink:href="#A"/><use transform="matrix(0.06790123456790123,0,0,0.06790123456790123,31.166666666666664,0)" xlink:href="#Q"/><use transform="matrix(0.06790123456790123,0,0,0.06790123456790123,36.53086419753086,0)" xlink:href="#x"/><use transform="matrix(0.06790123456790123,0,0,0.06790123456790123,50.11111111111111,0)" xlink:href="#y"/><use transform="matrix(0.06790123456790123,0,0,0.06790123456790123,56.90123456790123,0)" xlink:href="#D"/><use transform="matrix(0.06790123456790123,0,0,0.06790123456790123,62.26543209876542,0)" xlink:href="#E"/><use transform="matrix(0.06790123456790123,0,0,0.06790123456790123,75.84567901234567,0)" xlink:href="#z"/><use transform="matrix(0.06790123456790123,0,0,0.06790123456790123,89.42592592592592,0)" xlink:href="#L"/><use transform="matrix(0.06790123456790123,0,0,0.06790123456790123,101.64814814814815,0)" xlink:href="#W"/><use transform="matrix(0.06790123456790123,0,0,0.06790123456790123,115.2283950617284,0)" xlink:href="#D"/><use transform="matrix(0.06790123456790123,0,0,0.06790123456790123,120.59259259259262,0)" xlink:href="#G"/><use transform="matrix(0.06790123456790123,0,0,0.06790123456790123,134.17283950617286,0)" xlink:href="#L"/></g></defs></g></svg>